<svg xmlns="http://www.w3.org/2000/svg" width="18.094" height="14.434" viewBox="0 0 18.094 14.434"><defs><style>.a{fill:#fff;}</style></defs><g transform="translate(0 0)"><g transform="translate(0 0)"><path class="a" d="M2145.434,2384.537a1.219,1.219,0,0,0-.353-.867l-6.812-6.8a3.379,3.379,0,0,0-2.087-.867h-3.964a1.237,1.237,0,0,0-1.219,1.22v3.963a2.941,2.941,0,0,0,.253,1.115,2.844,2.844,0,0,0,.614.962l6.813,6.822a1.166,1.166,0,0,0,.857.353,1.219,1.219,0,0,0,.867-.353l4.678-4.687a1.167,1.167,0,0,0,.353-.858Zm-10.523-4.625a1.219,1.219,0,1,1,.357-.862,1.175,1.175,0,0,1-.357.862Zm0,0" transform="translate(-2131 -2376)"/><path class="a" d="M3479.951,2383.7l-6.812-6.8a3.374,3.374,0,0,0-2.087-.867h-2.134a3.376,3.376,0,0,1,2.087.867l6.813,6.8a1.222,1.222,0,0,1,.353.867,1.168,1.168,0,0,1-.353.857l-4.479,4.478a2.72,2.72,0,0,0,.505.429,1.068,1.068,0,0,0,.562.133,1.221,1.221,0,0,0,.867-.352l4.678-4.688a1.166,1.166,0,0,0,.353-.857,1.222,1.222,0,0,0-.353-.867Zm0,0" transform="translate(-3462.21 -2376.032)"/></g></g></svg>