<svg xmlns="http://www.w3.org/2000/svg" width="44.567" height="54" viewBox="0 0 44.567 54">
  <defs>
    <style>
      .cls-1 {
        fill: #fff;
      }
    </style>
  </defs>
  <g id="shield-icon" transform="translate(-606.928 -417.903)">
    <path id="Path_113" data-name="Path 113" class="cls-1" d="M647.038,449.807c0,4.853-4.782,9.5-7.5,11.874a34.807,34.807,0,0,1-10.326,5.885,33.442,33.442,0,0,1-10.217-5.885c-2.826-2.375-7.609-7.021-7.609-11.874V428.435a47.473,47.473,0,0,0,17.827-5.369,45.2,45.2,0,0,0,17.826,5.473Zm4.131-25.4a40.237,40.237,0,0,1-21.957-6.5,41.046,41.046,0,0,1-22.283,6.5v25.4c0,11.771,18.044,22.1,22.283,22.1s22.283-10.325,22.283-22.1v-25.4Z"/>
    <path id="Path_114" data-name="Path 114" class="cls-1" d="M995.886,1088.116a.64.64,0,0,0-.466.2l-3.1,3.279a.644.644,0,0,0,.025.907l9.74,9.219a.608.608,0,0,0,.884-.045l14.364-16.691a.644.644,0,0,0-.068-.906l-3.421-2.945a.643.643,0,0,0-.9.068l-10.4,12.078a.613.613,0,0,1-.893.046l-5.321-5.035A.641.641,0,0,0,995.886,1088.116Z" transform="translate(-375.602 -646.533)"/>
  </g>
</svg>
