<svg xmlns="http://www.w3.org/2000/svg" width="102.376" height="17.481" viewBox="0 0 102.376 17.481">
  <defs>
    <style>
      .cls-1 {
        fill: #ffd500;
      }
    </style>
  </defs>
  <g id="star-rating" transform="translate(-473.001 -859)">
    <g id="noun_Star_3070210" transform="translate(1096 490.809)">
      <path id="Path_1" data-name="Path 1" class="cls-1" d="M23.372,13.858a.1.1,0,0,0-.081-.069l-6.226-.9L14.279,7.242a.105.105,0,0,0-.181,0l-2.784,5.642-6.226.9a.1.1,0,0,0-.056.172l4.505,4.392-1.064,6.2a.1.1,0,0,0,.147.107l5.569-2.928,5.57,2.928a.1.1,0,0,0,.047.012.1.1,0,0,0,.1-.118l-1.064-6.2,4.506-4.392A.1.1,0,0,0,23.372,13.858Z" transform="translate(-628 361)"/>
    </g>
    <g id="noun_Star_3070210-2" data-name="noun_Star_3070210" transform="translate(1117 490.809)">
      <path id="Path_1-2" data-name="Path 1" class="cls-1" d="M23.372,13.858a.1.1,0,0,0-.081-.069l-6.226-.9L14.279,7.242a.105.105,0,0,0-.181,0l-2.784,5.642-6.226.9a.1.1,0,0,0-.056.172l4.505,4.392-1.064,6.2a.1.1,0,0,0,.147.107l5.569-2.928,5.57,2.928a.1.1,0,0,0,.047.012.1.1,0,0,0,.1-.118l-1.064-6.2,4.506-4.392A.1.1,0,0,0,23.372,13.858Z" transform="translate(-628 361)"/>
    </g>
    <g id="noun_Star_3070210-3" data-name="noun_Star_3070210" transform="translate(1138 490.809)">
      <path id="Path_1-3" data-name="Path 1" class="cls-1" d="M23.372,13.858a.1.1,0,0,0-.081-.069l-6.226-.9L14.279,7.242a.105.105,0,0,0-.181,0l-2.784,5.642-6.226.9a.1.1,0,0,0-.056.172l4.505,4.392-1.064,6.2a.1.1,0,0,0,.147.107l5.569-2.928,5.57,2.928a.1.1,0,0,0,.047.012.1.1,0,0,0,.1-.118l-1.064-6.2,4.506-4.392A.1.1,0,0,0,23.372,13.858Z" transform="translate(-628 361)"/>
    </g>
    <g id="noun_Star_3070210-4" data-name="noun_Star_3070210" transform="translate(1159 490.809)">
      <path id="Path_1-4" data-name="Path 1" class="cls-1" d="M23.372,13.858a.1.1,0,0,0-.081-.069l-6.226-.9L14.279,7.242a.105.105,0,0,0-.181,0l-2.784,5.642-6.226.9a.1.1,0,0,0-.056.172l4.505,4.392-1.064,6.2a.1.1,0,0,0,.147.107l5.569-2.928,5.57,2.928a.1.1,0,0,0,.047.012.1.1,0,0,0,.1-.118l-1.064-6.2,4.506-4.392A.1.1,0,0,0,23.372,13.858Z" transform="translate(-628 361)"/>
    </g>
    <g id="noun_Star_3070210-5" data-name="noun_Star_3070210" transform="translate(1180 490.809)">
      <path id="Path_1-5" data-name="Path 1" class="cls-1" d="M23.372,13.858a.1.1,0,0,0-.081-.069l-6.226-.9L14.279,7.242a.105.105,0,0,0-.181,0l-2.784,5.642-6.226.9a.1.1,0,0,0-.056.172l4.505,4.392-1.064,6.2a.1.1,0,0,0,.147.107l5.569-2.928,5.57,2.928a.1.1,0,0,0,.047.012.1.1,0,0,0,.1-.118l-1.064-6.2,4.506-4.392A.1.1,0,0,0,23.372,13.858Z" transform="translate(-628 361)"/>
    </g>
  </g>
</svg>
