<svg xmlns="http://www.w3.org/2000/svg" width="185" height="45.418" viewBox="0 0 185 45.418">
  <defs>
    <style>
      .cls-1 {
        fill: #00b67a;
      }

      .cls-2 {
        fill: #005128;
      }
    </style>
  </defs>
  <g id="trustpilot-vector-logo" transform="translate(-20.5 -248.5)">
    <path id="Path_119" data-name="Path 119" d="M178.131,300.7h18.716v3.484h-7.369v19.641h-4.039V304.184H178.1l.031-3.484Zm17.914,6.383H199.5v3.238h.062a4.067,4.067,0,0,1,.647-1.326,5.125,5.125,0,0,1,1.141-1.172,5.044,5.044,0,0,1,1.48-.863,4.307,4.307,0,0,1,1.634-.339c.432,0,.74.031.894.031a2.7,2.7,0,0,0,.493.062v3.546a6.246,6.246,0,0,0-.8-.123,7.017,7.017,0,0,0-.8-.062,4.28,4.28,0,0,0-1.758.37,4.457,4.457,0,0,0-1.449,1.079,5.846,5.846,0,0,0-.987,1.788,7.545,7.545,0,0,0-.37,2.467v7.955h-3.7l.062-16.65Zm26.763,16.743H219.17v-2.343h-.062a5.166,5.166,0,0,1-2.035,2.035,5.371,5.371,0,0,1-2.744.771c-2.189,0-3.792-.524-4.779-1.634a7.148,7.148,0,0,1-1.48-4.933V307.082h3.7V317.35a4.375,4.375,0,0,0,.863,3.114,3.044,3.044,0,0,0,2.374.925,4.549,4.549,0,0,0,1.943-.37,3.35,3.35,0,0,0,1.264-.956,3.75,3.75,0,0,0,.709-1.449,6.845,6.845,0,0,0,.216-1.819v-9.713h3.7v16.743Zm6.29-5.365a2.91,2.91,0,0,0,1.233,2.282,4.856,4.856,0,0,0,2.559.647,8.468,8.468,0,0,0,1.172-.093,5.161,5.161,0,0,0,1.233-.308,2.17,2.17,0,0,0,.956-.678,1.579,1.579,0,0,0,.339-1.141,1.659,1.659,0,0,0-.524-1.172,4.368,4.368,0,0,0-1.233-.74,10.7,10.7,0,0,0-1.727-.462c-.647-.123-1.295-.277-1.973-.432s-1.357-.339-2-.555a5.744,5.744,0,0,1-1.727-.894,3.845,3.845,0,0,1-1.2-1.418,4.433,4.433,0,0,1-.462-2.128,3.646,3.646,0,0,1,.678-2.282,4.918,4.918,0,0,1,1.7-1.48,7.7,7.7,0,0,1,2.282-.8,13.07,13.07,0,0,1,2.374-.216,10.607,10.607,0,0,1,2.467.278,6.234,6.234,0,0,1,2.128.894,4.885,4.885,0,0,1,1.573,1.6,5.554,5.554,0,0,1,.8,2.374h-3.854a2.373,2.373,0,0,0-1.2-1.788,4.966,4.966,0,0,0-2.189-.462c-.247,0-.586.031-.925.062a5.451,5.451,0,0,0-1.018.247,2.411,2.411,0,0,0-.8.524,1.234,1.234,0,0,0-.339.894,1.355,1.355,0,0,0,.462,1.079A4.19,4.19,0,0,0,231.1,313a10.688,10.688,0,0,0,1.727.463c.647.123,1.326.278,2,.432s1.326.339,1.973.555a5.4,5.4,0,0,1,1.727.894,4.446,4.446,0,0,1,1.233,1.388,4.262,4.262,0,0,1,.463,2.066,4.494,4.494,0,0,1-.678,2.528,5.766,5.766,0,0,1-1.758,1.7,8.717,8.717,0,0,1-2.4.956,12.92,12.92,0,0,1-2.621.308,11.043,11.043,0,0,1-2.929-.37,7.459,7.459,0,0,1-2.343-1.079,5.177,5.177,0,0,1-1.542-1.819,5.94,5.94,0,0,1-.617-2.59h3.731v.031Zm12.179-11.378h2.806v-5.057h3.7v5.026h3.33V309.8h-3.33v8.942a9.508,9.508,0,0,0,.062,1.018,2.138,2.138,0,0,0,.216.709,1.2,1.2,0,0,0,.524.432,2.749,2.749,0,0,0,.987.154,6.441,6.441,0,0,0,.771-.031,6.676,6.676,0,0,0,.771-.123v2.868c-.4.062-.8.093-1.2.123a7.656,7.656,0,0,1-1.2.062,7.968,7.968,0,0,1-2.343-.278,3.366,3.366,0,0,1-1.387-.8,2.867,2.867,0,0,1-.678-1.326,10.52,10.52,0,0,1-.216-1.85v-9.867h-2.806v-2.806h0Zm12.426,0h3.484v2.282h.062a4.579,4.579,0,0,1,2.158-2.1,6.991,6.991,0,0,1,3.022-.648,7.6,7.6,0,0,1,3.453.709,6.479,6.479,0,0,1,2.436,1.912,7.973,7.973,0,0,1,1.449,2.837,12.457,12.457,0,0,1,.062,6.722,9.074,9.074,0,0,1-1.326,2.806,6.56,6.56,0,0,1-2.251,1.942,6.655,6.655,0,0,1-3.207.74,9.41,9.41,0,0,1-1.6-.154,6.826,6.826,0,0,1-1.542-.462,5.532,5.532,0,0,1-1.357-.832,4.7,4.7,0,0,1-1.048-1.172h-.062v8.356h-3.7v-22.94Zm12.919,8.387a7.514,7.514,0,0,0-.308-2.189,5.585,5.585,0,0,0-.894-1.881,4.933,4.933,0,0,0-1.449-1.326,3.944,3.944,0,0,0-2-.493,4.1,4.1,0,0,0-3.515,1.6,7.3,7.3,0,0,0-1.172,4.317,7.986,7.986,0,0,0,.308,2.343,5.221,5.221,0,0,0,.925,1.85,4.406,4.406,0,0,0,1.48,1.233,4.181,4.181,0,0,0,2,.463,4.1,4.1,0,0,0,2.127-.524,4.968,4.968,0,0,0,1.449-1.326,5.425,5.425,0,0,0,.8-1.881,10.59,10.59,0,0,0,.247-2.189Zm6.506-14.769h3.7v3.484h-3.7Zm0,6.383h3.7v16.743h-3.7V307.082Zm7-6.383h3.7v23.125h-3.7V300.7Zm14.985,23.588a8.812,8.812,0,0,1-3.577-.678,8.121,8.121,0,0,1-2.652-1.819,7.921,7.921,0,0,1-1.634-2.806,10.962,10.962,0,0,1-.586-3.546,10.014,10.014,0,0,1,.586-3.515,8.2,8.2,0,0,1,1.634-2.806,7.4,7.4,0,0,1,2.652-1.819,9.36,9.36,0,0,1,3.577-.678,8.812,8.812,0,0,1,3.577.678,7.673,7.673,0,0,1,2.652,1.819,7.92,7.92,0,0,1,1.634,2.806,10.772,10.772,0,0,1,.586,3.515,10.069,10.069,0,0,1-.586,3.546,8.728,8.728,0,0,1-1.634,2.806,7.4,7.4,0,0,1-2.652,1.819,9.247,9.247,0,0,1-3.577.678Zm0-2.929a4.264,4.264,0,0,0,2.127-.524,4.462,4.462,0,0,0,1.48-1.357,5.811,5.811,0,0,0,.863-1.881,8.412,8.412,0,0,0,0-4.286,5.527,5.527,0,0,0-.863-1.881,4.684,4.684,0,0,0-1.48-1.326,4.35,4.35,0,0,0-2.127-.524,4.265,4.265,0,0,0-2.128.524,4.723,4.723,0,0,0-1.48,1.326,5.528,5.528,0,0,0-.863,1.881,8.413,8.413,0,0,0,0,4.286,5.529,5.529,0,0,0,.863,1.881,4.782,4.782,0,0,0,1.48,1.357,4.037,4.037,0,0,0,2.128.524Zm9.558-14.276h2.806v-5.057h3.7v5.026h3.33V309.8h-3.33v8.942a9.485,9.485,0,0,0,.062,1.018,2.135,2.135,0,0,0,.216.709,1.2,1.2,0,0,0,.524.432,2.748,2.748,0,0,0,.987.154,6.441,6.441,0,0,0,.771-.031,6.676,6.676,0,0,0,.771-.123v2.868c-.4.062-.8.093-1.2.123a7.656,7.656,0,0,1-1.2.062,7.969,7.969,0,0,1-2.343-.278,3.366,3.366,0,0,1-1.388-.8,2.865,2.865,0,0,1-.678-1.326,10.53,10.53,0,0,1-.216-1.85v-9.867h-2.806v-2.806h0Z" transform="translate(-109.007 -36.105)"/>
    <path id="Path_120" data-name="Path 120" class="cls-1" d="M64.808,264.6H47.88l-5.211-16.1-5.242,16.1L20.5,264.564l13.69,9.959-5.242,16.1,13.69-9.959,13.69,9.959-5.211-16.1Z" transform="translate(0 0)"/>
    <path id="Path_121" data-name="Path 121" class="cls-2" d="M102.02,336.538l-1.172-3.638L92.4,339.036Z" transform="translate(-49.731 -58.377)"/>
  </g>
</svg>
