<svg id="water-proof-icon" xmlns="http://www.w3.org/2000/svg" width="39.682" height="53.983" viewBox="0 0 39.682 53.983">
  <defs>
    <style>
      .cls-1 {
        fill: #fff;
      }
    </style>
  </defs>
  <path id="icon-health-waterproof-fill-w" class="cls-1" d="M18.794,45.754a.872.872,0,0,1-.835.618.908.908,0,0,1-.255-.039A15.942,15.942,0,0,1,8.5,39.043a.872.872,0,1,1,1.512-.869,14.21,14.21,0,0,0,8.206,6.491.871.871,0,0,1,.58,1.089M39.6,31.9c-.726-8.406-5.2-16.3-8.826-21.446a67.937,67.937,0,0,0-7.709-9.187A4.453,4.453,0,0,0,19.912,0,4.446,4.446,0,0,0,16.62,1.271a68.157,68.157,0,0,0-7.71,9.187C5.284,15.6.809,23.5.085,31.9A20.233,20.233,0,0,0,5.143,47.515a19.931,19.931,0,0,0,29.395,0A20.231,20.231,0,0,0,39.6,31.9" transform="translate(0 0)"/>
</svg>
