<svg xmlns="http://www.w3.org/2000/svg" width="12.445" height="13.397" viewBox="0 0 12.445 13.397">
  <defs>
    <style>
      .cls-1 {
        fill: #fff;
      }
    </style>
  </defs>
  <path id="phone-icon" class="cls-1" d="M512,655.153l-2.959-1.542a.834.834,0,0,0-1.125.354l-.651,1.318a10.2,10.2,0,0,1-3.959-4.5l1.365-.468a.834.834,0,0,0,.5-1.071l-1.151-3.132a.834.834,0,0,0-1.071-.5l-2.049.7c-.022.006-.043.014-.064.022l-.047.016-.016.008-.03.015a.829.829,0,0,0-.181.109l-.03.023c-.011.009-.022.018-.032.028a1.494,1.494,0,0,0-.488,1.246,12.445,12.445,0,0,0,9.8,11.144,1.488,1.488,0,0,0,1.317-.341.827.827,0,0,0,.22-.266l1.011-2.047A.834.834,0,0,0,512,655.153Z" transform="translate(-500 -645.568)"/>
</svg>
