<svg xmlns="http://www.w3.org/2000/svg" width="60.568" height="60.568" viewBox="0 0 60.568 60.568">
  <defs>
    <style>
      .cls-1 {
        fill: #fff;
      }

      .cls-1, .cls-2 {
        fill-rule: evenodd;
      }

      .cls-2 {
        fill: #1c5084;
      }
    </style>
  </defs>
  <g id="dollar-icon" transform="translate(-168.47 -168.47)">
    <path id="Path_115" data-name="Path 115" class="cls-1" d="M198.754,172.508a26.246,26.246,0,1,1-26.246,26.246,26.246,26.246,0,0,1,26.246-26.246m0-4.038a30.284,30.284,0,1,1-30.284,30.284A30.284,30.284,0,0,1,198.754,168.47Z" transform="translate(0 0)"/>
    <path id="Path_116" data-name="Path 116" class="cls-1" d="M296.531,283.076h5.079l0-2.845c4.859-.573,8.723-3.374,8.892-8.381.189-5.6-3.848-7.607-8.9-8.34l0-6.991a3.708,3.708,0,0,1,1.748,1.321c1.938,2.759-1.851,2.228,6.283,2.227a8.544,8.544,0,0,0-2.49-6.018,10.493,10.493,0,0,0-3.939-2.234c-.284-.086-.59-.145-.881-.229-1-.29-.722.068-.721-4.085h-5.079c0,4.7.408,3.574-1.686,4.075-3.783.906-6.665,3.684-6.784,7.937-.143,5.126,2.934,6.9,6.967,7.928.964.244,1.372.178,1.5.616l-.028,7.254c-2.041-.516-3.063-1.777-3.392-4.094l-5.49.015a8.038,8.038,0,0,0,2.657,6.327,8.41,8.41,0,0,0,2.84,1.743c3.886,1.594,3.411-.584,3.411,3.776" transform="translate(-100.313 -66.534)"/>
    <path id="Path_117" data-name="Path 117" class="cls-2" d="M376.077,389.966c4.252-.756,4.8-5.4.013-6.392Z" transform="translate(-174.781 -181.092)"/>
    <path id="Path_118" data-name="Path 118" class="cls-2" d="M327.276,308.212l0-6.08c-1.634.355-3.063,1.3-3.131,3.06-.075,1.961,1.484,2.679,3.129,3.02" transform="translate(-131.06 -112.528)"/>
  </g>
</svg>
