<svg id="headphone-icon" xmlns="http://www.w3.org/2000/svg" width="70.31" height="70.902" viewBox="0 0 70.31 70.902">
  <defs>
    <style>
      .cls-1 {
        fill: #fff;
      }
    </style>
  </defs>
  <g id="icon-health-customer-service-fill-b">
    <path id="icon-health-customer-service-fill-w" class="cls-1" d="M62.784,27.52V26.186h-.932a26.831,26.831,0,0,0-53.646,0h-.68V27.52C3.328,27.811,0,31.7,0,36.472s3.328,8.661,7.526,8.952v1.332h5.842V26.186H12.72a22.318,22.318,0,0,1,44.618,0h-.4V46.755h1.21A22.664,22.664,0,0,1,46.37,61.9a5.31,5.31,0,1,0,1.492,3.734,26.667,26.667,0,0,0,14.385-18.88h.537V45.424c4.2-.291,7.526-4.183,7.526-8.952s-3.328-8.661-7.526-8.952"/>
  </g>
</svg>
