<svg xmlns="http://www.w3.org/2000/svg" width="19.028" height="20.483" viewBox="0 0 19.028 20.483">
  <defs>
    <style>
      .cls-1 {
        fill: #fff;
      }
    </style>
  </defs>
  <path id="phone-icon-white" class="cls-1" d="M518.341,660.224l-4.524-2.358a1.276,1.276,0,0,0-1.721.541l-1,2.015a15.6,15.6,0,0,1-6.053-6.877l2.087-.716a1.276,1.276,0,0,0,.757-1.637l-1.76-4.788a1.275,1.275,0,0,0-1.637-.757l-3.132,1.074c-.033.01-.066.022-.1.034l-.071.025c-.009,0-.016.008-.024.012l-.046.022a1.275,1.275,0,0,0-.277.167l-.046.035c-.016.014-.034.027-.05.043a2.284,2.284,0,0,0-.745,1.905A19.028,19.028,0,0,0,514.987,666,2.275,2.275,0,0,0,517,665.48a1.266,1.266,0,0,0,.337-.406l1.546-3.13A1.275,1.275,0,0,0,518.341,660.224Z" transform="translate(-500 -645.568)"/>
</svg>
